<svg version="1.1" id="Layer_1" xmlns="http://www.w3.org/2000/svg" xmlns:xlink="http://www.w3.org/1999/xlink" x="0px" y="0px"
	 width="100%" viewBox="0 0 800 800" enable-background="new 0 0 800 800" xml:space="preserve">
<path fill="#000000" opacity="1.000000" stroke="none" 
	d="
M379.000000,801.000000 
	C252.666672,801.000000 126.833336,801.000000 1.000000,801.000000 
	C1.000000,534.333313 1.000000,267.666656 1.000000,1.000000 
	C267.666656,1.000000 534.333313,1.000000 801.000000,1.000000 
	C801.000000,267.666656 801.000000,534.333313 801.000000,801.000000 
	C660.500000,801.000000 520.000000,801.000000 379.000000,801.000000 
M265.060577,300.839935 
	C239.308746,298.634949 220.526260,320.376343 220.858902,344.091187 
	C221.531723,392.059723 221.115387,440.044403 221.007690,488.022095 
	C220.991791,495.105194 223.053711,501.228546 227.953217,506.166168 
	C246.257736,524.613220 264.575409,543.050720 283.143738,561.230835 
	C290.362610,568.298706 299.341278,569.744629 309.829376,567.143494 
	C313.299896,567.488159 316.769867,568.124573 320.241058,568.131470 
	C348.216919,568.186646 376.193817,568.248047 404.168701,568.057068 
	C426.884491,567.901978 444.543579,550.118347 444.861755,527.409790 
	C444.962067,520.250427 444.894562,513.088745 444.947662,505.928467 
	C444.958130,504.515320 445.169556,503.103699 445.315186,501.371887 
	C447.449158,501.371887 449.096466,501.374878 450.743805,501.371399 
	C474.223724,501.322021 497.703918,501.321503 521.183533,501.207245 
	C543.152588,501.100342 560.278564,485.505310 562.243103,463.585388 
	C562.820801,457.139648 562.545776,450.611572 562.548340,444.121185 
	C562.565308,401.990173 562.414551,359.858459 562.644165,317.728699 
	C562.700500,307.395752 559.491760,299.240479 551.943237,291.994995 
	C535.007690,275.739227 518.550415,258.982483 502.013947,242.315155 
	C496.985748,237.247147 491.286285,233.969620 483.336029,233.255569 
	C482.680939,233.164566 482.025970,232.994781 481.370789,232.993927 
	C453.340027,232.957016 425.309204,232.917892 397.278534,232.952179 
	C395.505341,232.954346 393.732880,233.542526 391.226288,233.962296 
	C390.486389,234.000870 389.746521,234.039429 388.290771,233.704819 
	C361.545532,230.446091 340.679199,246.874908 338.478180,273.247498 
	C337.899078,280.186035 338.113831,287.214905 338.354095,294.188873 
	C338.500793,298.448059 337.215118,300.018463 332.727936,299.953064 
	C316.433533,299.715607 300.133453,299.839417 283.835724,299.891235 
	C281.878632,299.897461 279.922760,300.297424 277.120453,300.637238 
	C275.415527,300.771576 273.710602,300.905945 271.410950,300.682220 
	C269.601288,300.765076 267.791656,300.847961 265.060577,300.839935 
z"/>
<path fill="#F96D04" opacity="1.000000" stroke="none" 
	d="
M389.006622,234.078003 
	C389.746521,234.039429 390.486389,234.000870 392.055054,234.005737 
	C415.311462,234.004059 437.739136,233.976257 460.166687,233.904526 
	C468.130524,233.879059 476.093994,233.746765 484.057648,233.663239 
	C491.286285,233.969620 496.985748,237.247147 502.013947,242.315155 
	C518.550415,258.982483 535.007690,275.739227 551.943237,291.994995 
	C559.491760,299.240479 562.700500,307.395752 562.644165,317.728699 
	C562.414551,359.858459 562.565308,401.990173 562.548340,444.121185 
	C562.545776,450.611572 562.820801,457.139648 562.243103,463.585388 
	C560.278564,485.505310 543.152588,501.100342 521.183533,501.207245 
	C497.703918,501.321503 474.223724,501.322021 450.743805,501.371399 
	C449.096466,501.374878 447.449158,501.371887 445.315186,501.371887 
	C445.169556,503.103699 444.958130,504.515320 444.947662,505.928467 
	C444.894562,513.088745 444.962067,520.250427 444.861755,527.409790 
	C444.543579,550.118347 426.884491,567.901978 404.168701,568.057068 
	C376.193817,568.248047 348.216919,568.186646 320.241058,568.131470 
	C316.769867,568.124573 313.299896,567.488159 309.288391,566.747375 
	C305.135925,563.428162 301.253845,560.779846 297.958710,557.535461 
	C281.813995,541.639282 266.001587,525.402039 249.702286,509.667999 
	C242.333557,502.554871 239.195175,494.483429 239.248810,484.305420 
	C239.489288,438.657776 239.583481,393.006561 239.257584,347.360016 
	C239.110626,326.775909 246.873093,311.604553 266.351379,302.915100 
	C268.474731,302.274139 270.240204,301.657196 272.005676,301.040283 
	C273.710602,300.905945 275.415527,300.771576 277.995422,300.698883 
	C304.741211,300.760529 330.612000,300.760529 357.028351,300.760529 
	C357.028351,292.368835 356.684326,284.906647 357.139282,277.493500 
	C357.491180,271.759796 358.055298,265.816315 359.904755,260.440796 
	C364.698090,246.508698 375.294891,238.444733 389.006622,234.078003 
M510.764557,468.071442 
	C514.592529,468.085938 518.432129,468.298096 522.245972,468.073608 
	C530.065491,467.613342 535.483887,462.326447 536.378052,454.486481 
	C536.603882,452.506470 536.644714,450.496796 536.644104,448.500793 
	C536.631714,407.185303 536.601990,365.869843 536.572083,324.554352 
	C536.569946,321.555847 536.860718,318.503815 536.372742,315.584015 
	C536.163940,314.334900 534.347046,312.469360 533.190491,312.416199 
	C528.053894,312.180206 522.891846,312.499603 516.851807,312.437286 
	C509.224731,312.034302 501.597656,311.631317 493.668488,310.604004 
	C484.310547,305.618439 480.269043,297.726562 480.528748,287.247650 
	C480.722473,279.432037 480.452057,271.605896 480.548065,263.786407 
	C480.586060,260.693298 479.610718,259.123901 476.267853,259.288422 
	C471.128754,259.541321 465.979126,259.581085 459.920502,259.632507 
	C439.359070,259.653595 418.797607,259.674652 397.915253,259.439240 
	C397.546021,259.551544 397.176819,259.663879 396.055298,259.823181 
	C387.610840,261.921600 383.649994,266.655121 383.439850,275.217041 
	C383.285645,281.499512 382.905396,287.825256 383.432465,294.063599 
	C384.136688,302.399200 383.340546,309.734711 374.548370,314.514191 
	C373.120361,316.695770 371.363342,318.732239 370.325043,321.085785 
	C367.016510,328.585510 363.904846,336.107178 353.308716,333.664001 
	C353.172241,333.632538 352.998627,333.761993 352.030090,333.760162 
	C350.401947,333.784515 348.773804,333.808838 346.866638,333.609009 
	C346.542450,333.698883 346.218292,333.788788 344.970734,333.839935 
	C324.483795,333.827301 303.996857,333.800262 283.509918,333.807251 
	C270.376953,333.811707 265.338074,338.784515 265.337097,351.882935 
	C265.333832,395.854370 265.374420,439.825775 265.415680,483.797211 
	C265.417206,485.436218 265.600464,487.075043 265.732056,489.263031 
	C267.832916,489.263031 269.621704,489.257294 271.410400,489.264008 
	C280.404419,489.297791 289.404785,489.133087 298.390930,489.417877 
	C311.821289,489.843536 320.475525,498.176849 321.265717,511.607513 
	C321.734680,519.577881 321.482941,527.589722 321.602692,535.582153 
	C321.634033,537.672607 321.842773,539.760315 321.993500,542.234436 
	C324.853577,542.234436 327.160553,542.247864 329.467316,542.232300 
	C350.279388,542.092163 371.091461,541.946960 392.798431,542.146057 
	C395.621429,542.202881 398.445892,542.348145 401.267181,542.301025 
	C413.001862,542.105042 418.676056,536.437439 418.776520,524.755920 
	C418.846558,516.610474 418.884735,508.462158 418.736877,500.318756 
	C418.683197,497.361664 419.497009,495.474213 422.208923,493.879303 
	C430.814026,488.818512 437.016357,481.684113 439.921936,471.919647 
	C440.328094,470.554688 441.330017,469.367004 442.986237,468.076904 
	C445.482452,468.084564 447.978790,468.111664 450.474854,468.096771 
	C470.272156,467.978485 490.069397,467.852234 510.764557,468.071442 
z"/>
<path fill="#5B2802" opacity="1.000000" stroke="none" 
	d="
M265.993530,302.939087 
	C246.873093,311.604553 239.110626,326.775909 239.257584,347.360016 
	C239.583481,393.006561 239.489288,438.657776 239.248810,484.305420 
	C239.195175,494.483429 242.333557,502.554871 249.702286,509.667999 
	C266.001587,525.402039 281.813995,541.639282 297.958710,557.535461 
	C301.253845,560.779846 305.135925,563.428162 308.875732,566.665161 
	C299.341278,569.744629 290.362610,568.298706 283.143738,561.230835 
	C264.575409,543.050720 246.257736,524.613220 227.953217,506.166168 
	C223.053711,501.228546 220.991791,495.105194 221.007690,488.022095 
	C221.115387,440.044403 221.531723,392.059723 220.858902,344.091187 
	C220.526260,320.376343 239.308746,298.634949 265.524750,301.220398 
	C265.990448,302.046967 265.992004,302.493011 265.993530,302.939087 
z"/>
<path fill="#5D2A03" opacity="1.000000" stroke="none" 
	d="
M388.648682,233.891418 
	C375.294891,238.444733 364.698090,246.508698 359.904755,260.440796 
	C358.055298,265.816315 357.491180,271.759796 357.139282,277.493500 
	C356.684326,284.906647 357.028351,292.368835 357.028351,300.760529 
	C330.612000,300.760529 304.741211,300.760529 278.418396,300.637695 
	C279.922760,300.297424 281.878632,299.897461 283.835724,299.891235 
	C300.133453,299.839417 316.433533,299.715607 332.727936,299.953064 
	C337.215118,300.018463 338.500793,298.448059 338.354095,294.188873 
	C338.113831,287.214905 337.899078,280.186035 338.478180,273.247498 
	C340.679199,246.874908 361.545532,230.446091 388.648682,233.891418 
z"/>
<path fill="#5D2A03" opacity="1.000000" stroke="none" 
	d="
M483.696838,233.459412 
	C476.093994,233.746765 468.130524,233.879059 460.166687,233.904526 
	C437.739136,233.976257 415.311462,234.004059 392.421936,233.953629 
	C393.732880,233.542526 395.505341,232.954346 397.278534,232.952179 
	C425.309204,232.917892 453.340027,232.957016 481.370789,232.993927 
	C482.025970,232.994781 482.680939,233.164566 483.696838,233.459412 
z"/>
<path fill="#5D2A03" opacity="1.000000" stroke="none" 
	d="
M266.351379,302.915100 
	C265.992004,302.493011 265.990448,302.046967 265.985474,301.265869 
	C267.791656,300.847961 269.601288,300.765076 271.708313,300.861237 
	C270.240204,301.657196 268.474731,302.274139 266.351379,302.915100 
z"/>
<path fill="#010100" opacity="1.000000" stroke="none" 
	d="
M391.903534,541.803223 
	C371.091461,541.946960 350.279388,542.092163 329.467316,542.232300 
	C327.160553,542.247864 324.853577,542.234436 321.993500,542.234436 
	C321.842773,539.760315 321.634033,537.672607 321.602692,535.582153 
	C321.482941,527.589722 321.734680,519.577881 321.265717,511.607513 
	C320.475525,498.176849 311.821289,489.843536 298.390930,489.417877 
	C289.404785,489.133087 280.404419,489.297791 271.410400,489.264008 
	C269.621704,489.257294 267.832916,489.263031 265.732056,489.263031 
	C265.600464,487.075043 265.417206,485.436218 265.415680,483.797211 
	C265.374420,439.825775 265.333832,395.854370 265.337097,351.882935 
	C265.338074,338.784515 270.376953,333.811707 283.509918,333.807251 
	C303.996857,333.800262 324.483795,333.827301 345.747803,333.920929 
	C346.731842,333.945679 346.938751,333.889404 347.145660,333.833160 
	C348.773804,333.808838 350.401947,333.784515 352.894318,333.915283 
	C356.254547,334.117371 358.781158,333.946503 361.235321,334.291321 
	C362.759430,334.505493 364.173676,335.501312 365.637238,336.146271 
	C364.165863,337.074463 362.697021,338.006653 361.222443,338.929718 
	C359.852020,339.787537 358.475464,340.635498 357.101624,341.487793 
	C358.451416,342.611572 359.780273,344.660248 361.154907,344.691406 
	C365.903809,344.799042 366.422302,347.671417 365.638489,351.036774 
	C365.337006,352.331207 363.242920,353.157532 362.088898,354.319519 
	C361.123840,355.291229 359.910675,356.349701 359.653290,357.550995 
	C359.524048,358.154236 361.346680,359.930206 362.169037,359.856964 
	C366.583801,359.463562 368.825775,362.530945 371.923370,364.726654 
	C375.119141,366.992035 379.371918,368.317780 383.315704,368.800262 
	C386.420776,369.180145 389.759033,367.653900 393.354614,367.112091 
	C400.801849,370.474335 407.491669,369.781708 413.107056,364.375305 
	C415.739563,361.840820 417.938599,359.568359 421.990173,360.088409 
	C422.868073,360.201111 424.888489,358.392303 424.778229,357.739471 
	C424.563171,356.465790 423.395477,355.140137 422.272980,354.306000 
	C421.502319,353.733307 420.142395,353.953613 419.015564,353.815765 
	C419.015564,350.671844 419.015564,347.938934 419.015564,345.206024 
	C419.322754,345.536163 419.629944,345.866333 419.937134,346.196472 
	C422.508301,344.753906 427.240448,343.350464 427.267365,341.861847 
	C427.370514,336.163116 421.587708,340.467499 420.418793,339.297638 
	C418.246490,333.505615 417.001709,328.841064 414.760345,324.718292 
	C413.428864,322.269104 412.660400,320.687988 414.136261,318.032318 
	C414.837128,316.771240 413.956451,314.631226 413.792297,312.889404 
	C412.247101,313.693237 410.215057,314.119781 409.246033,315.370148 
	C406.066254,319.473053 397.396851,319.616913 394.160370,315.651337 
	C393.045990,314.285950 390.864075,313.791870 389.169830,312.899719 
	C388.889313,314.654022 388.608765,316.408325 387.853088,318.203156 
	C385.220978,318.228943 383.057251,318.099670 380.908722,318.226898 
	C377.838379,318.408691 375.713165,317.425140 375.087494,314.182251 
	C383.340546,309.734711 384.136688,302.399200 383.432465,294.063599 
	C382.905396,287.825256 383.285645,281.499512 383.439850,275.217041 
	C383.649994,266.655121 387.610840,261.921600 396.792938,259.858215 
	C397.765747,259.827423 398.000946,259.761566 398.236176,259.695740 
	C418.797607,259.674652 439.359070,259.653595 460.658875,260.012329 
	C461.632050,269.626251 462.152435,278.863922 462.037872,288.093719 
	C461.842987,303.789062 473.343353,316.035797 493.970581,311.228302 
	C501.597656,311.631317 509.224731,312.034302 517.356201,312.952026 
	C517.925720,357.017181 517.865906,400.568390 518.157593,444.117279 
	C518.218445,453.202911 517.913208,461.702393 509.866669,467.728455 
	C490.069397,467.852234 470.272156,467.978485 450.474854,468.096771 
	C447.978790,468.111664 445.482452,468.084564 442.053314,468.041229 
	C439.629150,468.043304 438.138062,468.092346 436.646606,468.116821 
	C429.908936,468.227386 422.305023,466.112518 418.892731,474.559082 
	C418.786377,471.691559 418.786377,469.273712 418.786377,466.855835 
	C419.193207,467.156952 419.600037,467.458069 420.006897,467.759186 
	C422.509247,466.434448 427.066925,465.232819 427.154968,463.763397 
	C427.518524,457.694733 421.206177,462.144012 419.560974,459.214600 
	C417.962891,454.243835 415.627014,449.601135 413.748138,444.780304 
	C413.223999,443.435333 414.222321,441.562805 414.209473,439.934784 
	C414.195953,438.216766 413.808594,436.501648 413.584534,434.785278 
	C412.136017,435.500122 410.232269,435.851807 409.320496,436.994781 
	C405.955841,441.212585 397.525543,441.379456 394.149384,437.293732 
	C393.052521,435.966278 391.087585,435.356110 389.519714,434.417847 
	C389.131927,436.271698 388.744202,438.125549 387.878876,440.014648 
	C382.513031,439.743774 376.885284,441.814240 373.832367,435.580597 
	C373.546539,434.996948 371.189026,434.707611 370.520630,435.223633 
	C369.773743,435.800262 369.214630,437.977325 369.683197,438.549713 
	C372.629425,442.148743 370.705750,444.711182 368.629059,447.769501 
	C367.207825,449.862579 366.285919,452.621582 366.107239,455.151184 
	C365.867798,458.540833 364.908264,460.255005 361.276245,460.642731 
	C359.799866,460.800293 358.503967,462.648529 357.125946,463.727509 
	C358.526184,464.578125 359.833832,465.852692 361.347626,466.183136 
	C363.812073,466.721161 365.879608,467.135651 365.862946,470.310883 
	C365.848267,473.106201 365.899475,475.614441 362.110077,476.147003 
	C361.088867,476.290527 359.567505,478.057404 359.598785,479.036896 
	C359.629517,479.998718 361.382080,481.739075 362.310883,481.695190 
	C366.461182,481.499146 368.656830,484.133087 371.583832,486.378998 
	C374.668762,488.746094 378.921478,490.180542 382.837769,490.692352 
	C386.092133,491.117706 389.598663,489.613678 393.357117,489.079865 
	C397.442444,489.751526 401.164093,490.307648 405.124603,490.996582 
	C405.097931,491.938477 405.037231,493.278717 404.534424,493.472626 
	C400.514069,495.023132 399.941895,498.109863 400.088409,501.901886 
	C400.292938,507.195068 399.895447,512.516113 400.197449,517.799927 
	C400.723450,527.001953 400.151215,535.691772 391.903534,541.803223 
M470.450897,345.502014 
	C468.338501,341.061615 465.255188,338.177948 459.908783,339.003601 
	C454.957092,339.768341 453.290558,343.390839 452.227234,347.682129 
	C449.167236,360.031921 442.150238,369.685455 431.605194,376.647278 
	C426.229584,380.196259 420.477325,383.174774 414.216553,386.156494 
	C407.446411,380.862000 400.091858,379.956207 391.392273,383.020660 
	C379.573578,379.877411 370.765503,382.064362 366.413147,390.260773 
	C364.167297,394.490265 361.058929,395.914032 356.937805,397.187195 
	C332.416595,404.762695 312.034882,417.926178 299.682098,441.270416 
	C297.547485,445.304382 296.077454,449.836731 295.144257,454.314697 
	C294.354645,458.103516 296.558899,461.161621 300.286743,462.437256 
	C304.167175,463.765076 307.885773,463.389801 310.596527,459.793549 
	C311.491669,458.605927 312.196320,457.274811 313.328552,456.617981 
	C314.942596,461.030212 317.990936,463.264771 322.796356,463.132233 
	C327.149261,463.012146 329.496490,460.335785 330.785431,456.725006 
	C337.651489,437.491119 352.152496,426.054596 370.444763,417.988129 
	C370.777771,417.929626 371.002472,417.741638 371.727051,417.241364 
	C372.149658,417.228241 372.572266,417.215118 373.294647,417.817047 
	C379.260406,421.683533 385.329315,421.449432 392.188324,418.563263 
	C403.287781,422.814636 411.401947,420.154419 418.157928,410.489624 
	C419.320190,408.826904 421.663910,407.720551 423.689484,406.977661 
	C432.249359,403.838379 441.294525,401.751404 449.430176,397.779968 
	C468.865936,388.292389 482.573700,373.485443 487.961060,351.975739 
	C489.633392,345.298737 487.683899,340.664337 482.884399,339.103363 
	C477.716461,337.422577 473.862518,339.633820 470.450897,345.502014 
z"/>
<path fill="#5E2902" opacity="1.000000" stroke="none" 
	d="
M510.315613,467.899963 
	C517.913208,461.702393 518.218445,453.202911 518.157593,444.117279 
	C517.865906,400.568390 517.925720,357.017181 517.799805,313.042450 
	C522.891846,312.499603 528.053894,312.180206 533.190491,312.416199 
	C534.347046,312.469360 536.163940,314.334900 536.372742,315.584015 
	C536.860718,318.503815 536.569946,321.555847 536.572083,324.554352 
	C536.601990,365.869843 536.631714,407.185303 536.644104,448.500793 
	C536.644714,450.496796 536.603882,452.506470 536.378052,454.486481 
	C535.483887,462.326447 530.065491,467.613342 522.245972,468.073608 
	C518.432129,468.298096 514.592529,468.085938 510.315613,467.899963 
z"/>
<path fill="#5C2802" opacity="1.000000" stroke="none" 
	d="
M418.999084,475.008698 
	C422.305023,466.112518 429.908936,468.227386 436.646606,468.116821 
	C438.138062,468.092346 439.629150,468.043304 441.588287,468.051422 
	C441.330017,469.367004 440.328094,470.554688 439.921936,471.919647 
	C437.016357,481.684113 430.814026,488.818512 422.208923,493.879303 
	C419.497009,495.474213 418.683197,497.361664 418.736877,500.318756 
	C418.884735,508.462158 418.846558,516.610474 418.776520,524.755920 
	C418.676056,536.437439 413.001862,542.105042 401.267181,542.301025 
	C398.445892,542.348145 395.621429,542.202881 392.350983,541.974609 
	C400.151215,535.691772 400.723450,527.001953 400.197449,517.799927 
	C399.895447,512.516113 400.292938,507.195068 400.088409,501.901886 
	C399.941895,498.109863 400.514069,495.023132 404.534424,493.472626 
	C405.037231,493.278717 405.097931,491.938477 405.414093,490.801758 
	C408.649536,488.296448 411.823151,486.102081 415.025604,483.950623 
	C416.074371,483.246063 417.129608,482.454620 418.301727,482.050598 
	C420.619080,481.251862 424.473785,483.606537 424.930420,479.110535 
	C425.391937,474.566132 420.575226,476.990631 418.999084,475.008698 
z"/>
<path fill="#5E2A03" opacity="1.000000" stroke="none" 
	d="
M493.819519,310.916138 
	C473.343353,316.035797 461.842987,303.789062 462.037872,288.093719 
	C462.152435,278.863922 461.632050,269.626251 461.115601,260.051697 
	C465.979126,259.581085 471.128754,259.541321 476.267853,259.288422 
	C479.610718,259.123901 480.586060,260.693298 480.548065,263.786407 
	C480.452057,271.605896 480.722473,279.432037 480.528748,287.247650 
	C480.269043,297.726562 484.310547,305.618439 493.819519,310.916138 
z"/>
<path fill="#5D2903" opacity="1.000000" stroke="none" 
	d="
M374.817932,314.348206 
	C375.713165,317.425140 377.838379,318.408691 380.908722,318.226898 
	C383.057251,318.099670 385.220978,318.228943 388.114990,318.402374 
	C388.731110,320.325439 388.965027,322.210327 388.415466,323.829193 
	C387.263336,327.223175 385.022186,330.372681 384.490021,333.817505 
	C383.933502,337.419800 383.125885,339.224304 379.122437,339.037109 
	C377.907867,338.980286 376.607269,340.762207 375.346069,341.701935 
	C376.605713,342.743317 377.714691,344.216949 379.161560,344.721100 
	C381.151825,345.414703 384.181213,344.163483 384.094330,347.938293 
	C384.029541,350.752350 385.169678,354.204071 380.307159,354.425781 
	C379.484375,354.463287 378.161987,356.145996 378.120880,357.113281 
	C378.081268,358.045715 379.564178,359.955414 380.098724,359.860596 
	C386.412018,358.740509 388.842316,364.393951 392.993713,366.974304 
	C389.759033,367.653900 386.420776,369.180145 383.315704,368.800262 
	C379.371918,368.317780 375.119141,366.992035 371.923370,364.726654 
	C368.825775,362.530945 366.583801,359.463562 362.169037,359.856964 
	C361.346680,359.930206 359.524048,358.154236 359.653290,357.550995 
	C359.910675,356.349701 361.123840,355.291229 362.088898,354.319519 
	C363.242920,353.157532 365.337006,352.331207 365.638489,351.036774 
	C366.422302,347.671417 365.903809,344.799042 361.154907,344.691406 
	C359.780273,344.660248 358.451416,342.611572 357.101624,341.487793 
	C358.475464,340.635498 359.852020,339.787537 361.222443,338.929718 
	C362.697021,338.006653 364.165863,337.074463 365.637238,336.146271 
	C364.173676,335.501312 362.759430,334.505493 361.235321,334.291321 
	C358.781158,333.946503 356.254547,334.117371 353.300446,333.943359 
	C352.998627,333.761993 353.172241,333.632538 353.308716,333.664001 
	C363.904846,336.107178 367.016510,328.585510 370.325043,321.085785 
	C371.363342,318.732239 373.120361,316.695770 374.817932,314.348206 
z"/>
<path fill="#5D2903" opacity="1.000000" stroke="none" 
	d="
M347.006165,333.721069 
	C346.938751,333.889404 346.731842,333.945679 346.209503,333.940308 
	C346.218292,333.788788 346.542450,333.698883 347.006165,333.721069 
z"/>
<path fill="#5E2A03" opacity="1.000000" stroke="none" 
	d="
M398.075714,259.567505 
	C398.000946,259.761566 397.765747,259.827423 397.169067,259.834717 
	C397.176819,259.663879 397.546021,259.551544 398.075714,259.567505 
z"/>
<path fill="#F76D06" opacity="1.000000" stroke="none" 
	d="
M392.181793,383.222412 
	C400.091858,379.956207 407.446411,380.862000 414.644226,386.610779 
	C416.988983,387.868134 419.126740,389.677582 420.787781,389.313263 
	C432.786285,386.681732 443.954407,381.943665 453.558350,374.144226 
	C462.583344,366.814972 468.916382,357.676392 470.940063,345.956512 
	C473.862518,339.633820 477.716461,337.422577 482.884399,339.103363 
	C487.683899,340.664337 489.633392,345.298737 487.961060,351.975739 
	C482.573700,373.485443 468.865936,388.292389 449.430176,397.779968 
	C441.294525,401.751404 432.249359,403.838379 423.689484,406.977661 
	C421.663910,407.720551 419.320190,408.826904 418.157928,410.489624 
	C411.401947,420.154419 403.287781,422.814636 391.603149,418.189819 
	C385.230682,411.144562 379.138184,413.428070 372.994873,417.201996 
	C372.572266,417.215118 372.149658,417.228241 371.196991,417.312561 
	C370.355927,417.473450 370.129913,417.664001 369.988831,417.955383 
	C352.152496,426.054596 337.651489,437.491119 330.785431,456.725006 
	C329.496490,460.335785 327.149261,463.012146 322.796356,463.132233 
	C317.990936,463.264771 314.942596,461.030212 313.256165,455.926147 
	C315.352173,442.604370 322.300873,432.560028 330.817932,423.528503 
	C343.203735,410.394501 358.585510,402.188721 375.731415,396.957886 
	C378.394226,396.145477 381.074280,394.666595 383.152039,392.825317 
	C386.426819,389.923218 389.197632,386.452454 392.181793,383.222412 
z"/>
<path fill="#F66C05" opacity="1.000000" stroke="none" 
	d="
M418.892731,474.559082 
	C420.575226,476.990631 425.391937,474.566132 424.930420,479.110535 
	C424.473785,483.606537 420.619080,481.251862 418.301727,482.050598 
	C417.129608,482.454620 416.074371,483.246063 415.025604,483.950623 
	C411.823151,486.102081 408.649536,488.296448 405.175232,490.668976 
	C401.164093,490.307648 397.442444,489.751526 393.137482,488.830750 
	C388.516418,485.674255 385.699829,480.655914 379.615997,481.485901 
	C379.180725,481.545288 377.847839,479.559875 378.071014,478.926575 
	C378.480713,477.764191 379.657257,476.151917 380.658661,476.041809 
	C385.203491,475.542084 383.923828,472.244965 384.054321,469.651337 
	C384.219696,466.365417 381.636475,466.970398 379.627167,466.381958 
	C378.030914,465.914520 376.722107,464.465729 375.285675,463.452606 
	C376.728058,462.450012 378.139893,460.660980 379.618988,460.603516 
	C383.020447,460.471405 383.842041,459.074036 384.439484,455.891479 
	C385.115143,452.292084 387.349518,449.012909 388.456268,445.454590 
	C388.970917,443.799957 388.422821,441.814758 388.356445,439.979431 
	C388.744202,438.125549 389.131927,436.271698 389.519714,434.417847 
	C391.087585,435.356110 393.052521,435.966278 394.149384,437.293732 
	C397.525543,441.379456 405.955841,441.212585 409.320496,436.994781 
	C410.232269,435.851807 412.136017,435.500122 413.584534,434.785278 
	C413.808594,436.501648 414.195953,438.216766 414.209473,439.934784 
	C414.222321,441.562805 413.223999,443.435333 413.748138,444.780304 
	C415.627014,449.601135 417.962891,454.243835 419.560974,459.214600 
	C421.206177,462.144012 427.518524,457.694733 427.154968,463.763397 
	C427.066925,465.232819 422.509247,466.434448 420.006897,467.759186 
	C419.600037,467.458069 419.193207,467.156952 418.786377,466.855835 
	C418.786377,469.273712 418.786377,471.691559 418.892731,474.559082 
z"/>
<path fill="#F66C06" opacity="1.000000" stroke="none" 
	d="
M393.354614,367.112061 
	C388.842316,364.393951 386.412018,358.740509 380.098724,359.860596 
	C379.564178,359.955414 378.081268,358.045715 378.120880,357.113281 
	C378.161987,356.145996 379.484375,354.463287 380.307159,354.425781 
	C385.169678,354.204071 384.029541,350.752350 384.094330,347.938293 
	C384.181213,344.163483 381.151825,345.414703 379.161560,344.721100 
	C377.714691,344.216949 376.605713,342.743317 375.346069,341.701935 
	C376.607269,340.762207 377.907867,338.980286 379.122437,339.037109 
	C383.125885,339.224304 383.933502,337.419800 384.490021,333.817505 
	C385.022186,330.372681 387.263336,327.223175 388.415466,323.829193 
	C388.965027,322.210327 388.731110,320.325439 388.590149,318.361847 
	C388.608765,316.408325 388.889313,314.654022 389.169830,312.899719 
	C390.864075,313.791870 393.045990,314.285950 394.160370,315.651337 
	C397.396851,319.616913 406.066254,319.473053 409.246033,315.370148 
	C410.215057,314.119781 412.247101,313.693237 413.792297,312.889404 
	C413.956451,314.631226 414.837128,316.771240 414.136261,318.032318 
	C412.660400,320.687988 413.428864,322.269104 414.760345,324.718292 
	C417.001709,328.841064 418.246490,333.505615 420.418793,339.297638 
	C421.587708,340.467499 427.370514,336.163116 427.267365,341.861847 
	C427.240448,343.350464 422.508301,344.753906 419.937134,346.196472 
	C419.629944,345.866333 419.322754,345.536163 419.015564,345.206024 
	C419.015564,347.938934 419.015564,350.671844 419.015564,353.815765 
	C420.142395,353.953613 421.502319,353.733307 422.272980,354.306000 
	C423.395477,355.140137 424.563171,356.465790 424.778229,357.739471 
	C424.888489,358.392303 422.868073,360.201111 421.990173,360.088409 
	C417.938599,359.568359 415.739563,361.840820 413.107056,364.375305 
	C407.491669,369.781708 400.801849,370.474335 393.354614,367.112061 
z"/>
<path fill="#5B2903" opacity="1.000000" stroke="none" 
	d="
M391.787048,383.121521 
	C389.197632,386.452454 386.426819,389.923218 383.152039,392.825317 
	C381.074280,394.666595 378.394226,396.145477 375.731415,396.957886 
	C358.585510,402.188721 343.203735,410.394501 330.817932,423.528503 
	C322.300873,432.560028 315.352173,442.604370 313.085938,455.621826 
	C312.196320,457.274811 311.491669,458.605927 310.596527,459.793549 
	C307.885773,463.389801 304.167175,463.765076 300.286743,462.437256 
	C296.558899,461.161621 294.354645,458.103516 295.144257,454.314697 
	C296.077454,449.836731 297.547485,445.304382 299.682098,441.270416 
	C312.034882,417.926178 332.416595,404.762695 356.937805,397.187195 
	C361.058929,395.914032 364.167297,394.490265 366.413147,390.260773 
	C370.765503,382.064362 379.573578,379.877411 391.787048,383.121521 
z"/>
<path fill="#5B2802" opacity="1.000000" stroke="none" 
	d="
M387.878876,440.014648 
	C388.422821,441.814758 388.970917,443.799957 388.456268,445.454590 
	C387.349518,449.012909 385.115143,452.292084 384.439484,455.891479 
	C383.842041,459.074036 383.020447,460.471405 379.618988,460.603516 
	C378.139893,460.660980 376.728058,462.450012 375.285675,463.452606 
	C376.722107,464.465729 378.030914,465.914520 379.627167,466.381958 
	C381.636475,466.970398 384.219696,466.365417 384.054321,469.651337 
	C383.923828,472.244965 385.203491,475.542084 380.658661,476.041809 
	C379.657257,476.151917 378.480713,477.764191 378.071014,478.926575 
	C377.847839,479.559875 379.180725,481.545288 379.615997,481.485901 
	C385.699829,480.655914 388.516418,485.674255 392.773804,488.715210 
	C389.598663,489.613678 386.092133,491.117706 382.837769,490.692352 
	C378.921478,490.180542 374.668762,488.746094 371.583832,486.378998 
	C368.656830,484.133087 366.461182,481.499146 362.310883,481.695190 
	C361.382080,481.739075 359.629517,479.998718 359.598785,479.036896 
	C359.567505,478.057404 361.088867,476.290527 362.110077,476.147003 
	C365.899475,475.614441 365.848267,473.106201 365.862946,470.310883 
	C365.879608,467.135651 363.812073,466.721161 361.347626,466.183136 
	C359.833832,465.852692 358.526184,464.578125 357.125946,463.727509 
	C358.503967,462.648529 359.799866,460.800293 361.276245,460.642731 
	C364.908264,460.255005 365.867798,458.540833 366.107239,455.151184 
	C366.285919,452.621582 367.207825,449.862579 368.629059,447.769501 
	C370.705750,444.711182 372.629425,442.148743 369.683197,438.549713 
	C369.214630,437.977325 369.773743,435.800262 370.520630,435.223633 
	C371.189026,434.707611 373.546539,434.996948 373.832367,435.580597 
	C376.885284,441.814240 382.513031,439.743774 387.878876,440.014648 
z"/>
<path fill="#5B2803" opacity="1.000000" stroke="none" 
	d="
M470.695496,345.729248 
	C468.916382,357.676392 462.583344,366.814972 453.558350,374.144226 
	C443.954407,381.943665 432.786285,386.681732 420.787781,389.313263 
	C419.126740,389.677582 416.988983,387.868134 414.983612,386.738098 
	C420.477325,383.174774 426.229584,380.196259 431.605194,376.647278 
	C442.150238,369.685455 449.167236,360.031921 452.227234,347.682129 
	C453.290558,343.390839 454.957092,339.768341 459.908783,339.003601 
	C465.255188,338.177948 468.338501,341.061615 470.695496,345.729248 
z"/>
<path fill="#5E2A03" opacity="1.000000" stroke="none" 
	d="
M373.144775,417.509521 
	C379.138184,413.428070 385.230682,411.144562 391.245056,418.045288 
	C385.329315,421.449432 379.260406,421.683533 373.144775,417.509521 
z"/>
<path fill="#5E2A03" opacity="1.000000" stroke="none" 
	d="
M370.216797,417.971741 
	C370.129913,417.664001 370.355927,417.473450 370.892883,417.403961 
	C371.002472,417.741638 370.777771,417.929626 370.216797,417.971741 
z"/>
</svg>